<mxfile host="www.draw.io" modified="2020-03-24T06:24:40.033Z" agent="Mozilla/5.0 (Macintosh; Intel Mac OS X 10_13_6) AppleWebKit/537.36 (KHTML, like Gecko) Chrome/80.0.3987.149 Safari/537.36" etag="K57-sphVOhCqh3t59O8B" version="12.9.0" type="github">
  <diagram id="3CLNP1bIX9TdkSOHt1fi" name="Page-1">
    <mxGraphModel dx="892" dy="498" grid="1" gridSize="10" guides="1" tooltips="1" connect="1" arrows="1" fold="1" page="1" pageScale="1" pageWidth="827" pageHeight="1169" math="0" shadow="0">
      <root>
        <mxCell id="0" />
        <mxCell id="1" parent="0" />
        <mxCell id="BkX6Ykuq66YcKqoSgdlE-1" value="打印方案 Printprogt&lt;br&gt;CBOH_PRINTPROGT_3CH" style="rounded=1;whiteSpace=wrap;html=1;" parent="1" vertex="1">
          <mxGeometry x="244" y="140" width="170" height="60" as="geometry" />
        </mxCell>
        <mxCell id="BkX6Ykuq66YcKqoSgdlE-3" value="打印方案明细 Printprog&lt;br&gt;CBOH_PRINTPROG_3CH" style="rounded=1;whiteSpace=wrap;html=1;" parent="1" vertex="1">
          <mxGeometry x="244" y="280" width="170" height="60" as="geometry" />
        </mxCell>
        <mxCell id="BkX6Ykuq66YcKqoSgdlE-4" value="菜品 PubItem&lt;br&gt;CBOH_PUBITEM_3CH" style="rounded=1;whiteSpace=wrap;html=1;" parent="1" vertex="1">
          <mxGeometry x="470" y="280" width="170" height="60" as="geometry" />
        </mxCell>
        <mxCell id="BkX6Ykuq66YcKqoSgdlE-5" value="" style="endArrow=none;html=1;entryX=1;entryY=0.5;entryDx=0;entryDy=0;exitX=0;exitY=0.5;exitDx=0;exitDy=0;" parent="1" source="BkX6Ykuq66YcKqoSgdlE-4" target="BkX6Ykuq66YcKqoSgdlE-3" edge="1">
          <mxGeometry width="50" height="50" relative="1" as="geometry">
            <mxPoint x="375" y="174.77744807121667" as="sourcePoint" />
            <mxPoint x="123" y="100" as="targetPoint" />
          </mxGeometry>
        </mxCell>
        <mxCell id="BkX6Ykuq66YcKqoSgdlE-6" value="门店部门 StoreDept&lt;br&gt;CBOH_STOREDEPT_3CH" style="rounded=1;whiteSpace=wrap;html=1;" parent="1" vertex="1">
          <mxGeometry x="20" y="280" width="160" height="60" as="geometry" />
        </mxCell>
        <mxCell id="BkX6Ykuq66YcKqoSgdlE-7" value="" style="endArrow=none;html=1;entryX=1;entryY=0.5;entryDx=0;entryDy=0;exitX=0;exitY=0.5;exitDx=0;exitDy=0;" parent="1" source="BkX6Ykuq66YcKqoSgdlE-3" target="BkX6Ykuq66YcKqoSgdlE-6" edge="1">
          <mxGeometry width="50" height="50" relative="1" as="geometry">
            <mxPoint x="220" y="310" as="sourcePoint" />
            <mxPoint x="410" y="320" as="targetPoint" />
          </mxGeometry>
        </mxCell>
        <mxCell id="BkX6Ykuq66YcKqoSgdlE-12" value="门店 Store&lt;br&gt;CBOH_STORE_3CH" style="rounded=1;whiteSpace=wrap;html=1;" parent="1" vertex="1">
          <mxGeometry x="244" y="20" width="170" height="60" as="geometry" />
        </mxCell>
        <mxCell id="BkX6Ykuq66YcKqoSgdlE-13" value="" style="endArrow=none;html=1;entryX=0.5;entryY=0;entryDx=0;entryDy=0;exitX=0.5;exitY=1;exitDx=0;exitDy=0;" parent="1" source="BkX6Ykuq66YcKqoSgdlE-12" target="BkX6Ykuq66YcKqoSgdlE-1" edge="1">
          <mxGeometry width="50" height="50" relative="1" as="geometry">
            <mxPoint x="254" y="320" as="sourcePoint" />
            <mxPoint x="180" y="320" as="targetPoint" />
            <Array as="points" />
          </mxGeometry>
        </mxCell>
        <mxCell id="ej0DTbByrugADvAjlVhk-1" value="1" style="endArrow=open;html=1;endSize=12;startArrow=diamondThin;startSize=14;startFill=1;edgeStyle=orthogonalEdgeStyle;align=left;verticalAlign=bottom;exitX=0.5;exitY=1;exitDx=0;exitDy=0;" edge="1" parent="1" source="BkX6Ykuq66YcKqoSgdlE-1" target="BkX6Ykuq66YcKqoSgdlE-3">
          <mxGeometry x="-0.5" y="11" relative="1" as="geometry">
            <mxPoint x="330" y="230" as="sourcePoint" />
            <mxPoint x="490" y="230" as="targetPoint" />
            <mxPoint as="offset" />
          </mxGeometry>
        </mxCell>
      </root>
    </mxGraphModel>
  </diagram>
</mxfile>
